<?xml version="1.0" encoding="UTF-8"?>
<svg id="Layer_2" data-name="Layer 2" xmlns="http://www.w3.org/2000/svg" xmlns:xlink="http://www.w3.org/1999/xlink" viewBox="0 0 3235.75 993.54">
  <defs>
    <style>
      .cls-1 {
        fill: url(#linear-gradient-2);
      }

      .cls-1, .cls-2, .cls-3 {
        fill-rule: evenodd;
      }

      .cls-2 {
        fill: url(#linear-gradient-3);
      }

      .cls-4 {
        fill: url(#linear-gradient-4);
      }

      .cls-3 {
        fill: url(#linear-gradient);
      }
    </style>
    <linearGradient id="linear-gradient" x1="0" y1="680.52" x2="614.85" y2="680.52" gradientUnits="userSpaceOnUse">
      <stop offset="0" stop-color="#000d6e"/>
      <stop offset="1" stop-color="#449fce"/>
    </linearGradient>
    <linearGradient id="linear-gradient-2" x1="15.14" y1="267.73" x2="615.45" y2="267.73" xlink:href="#linear-gradient"/>
    <linearGradient id="linear-gradient-3" x1="490.91" y1="903.17" x2="868.29" y2="249.53" xlink:href="#linear-gradient"/>
    <linearGradient id="linear-gradient-4" x1="2792.85" y1="1066.39" x2="1543.12" y2="-183.35" gradientUnits="userSpaceOnUse">
      <stop offset="0" stop-color="#000d6e"/>
      <stop offset=".16" stop-color="#021270"/>
      <stop offset=".36" stop-color="#0a2278"/>
      <stop offset=".58" stop-color="#163d85"/>
      <stop offset=".82" stop-color="#276198"/>
      <stop offset="1" stop-color="#3782a8"/>
    </linearGradient>
  </defs>
  <g id="Layer_1-2" data-name="Layer 1">
    <g id="Horizontal">
      <g>
        <path class="cls-3" d="M471.94,897.44c-99.37-172.11-198.74-344.23-298.11-516.35h-8.18c-60.6,0-112.62,30.04-142.92,82.52-30.3,52.48-30.31,112.55,0,165.03,51.69,89.53,103.46,179.21,155.18,268.79,31.21,53.1,82.54,82.51,142.92,82.52h294.03c-60.59,0-112.61-30.04-142.91-82.51"/>
        <path class="cls-1" d="M158.06,353.8c103.46,0,206.92,0,310.38,0l147.01-254.63c-103.38,0-206.93,0-310.37,0-61.59.48-112.73,30.22-142.92,82.51L15.14,436.31c30.29-52.47,82.32-82.5,142.92-82.51"/>
        <path class="cls-2" d="M1072.09,367.2c-214.32,57.43-428.62,114.85-642.95,172.28l165.46,95.53,51.81-39.78-158.72,274.9c32.62,56.66,80.02,89.61,147.02,89.61,60.59,0,112.62-30.04,142.91-82.52,47.81-82.8,246.63-427.16,294.47-510.01"/>
      </g>
      <g>
        <g>
          <g>
            <path d="M1443.33,435.92c-29.73,0-57.59-5.45-83.56-16.35-25.97-10.9-48.77-26.26-68.39-46.09-19.62-19.82-34.89-42.72-45.79-68.69-10.91-25.96-16.35-54.02-16.35-84.15s5.55-58.77,16.65-84.74c11.09-25.96,26.56-48.77,46.39-68.39,19.82-19.62,43.01-34.88,69.58-45.79,26.56-10.9,55.31-16.35,86.23-16.35,34.49,0,66.21,6.45,95.15,19.33,28.94,12.89,52.93,31.03,71.96,54.41l-54.71,54.71c-13.08-17.04-29.34-30.12-48.77-39.25-19.43-9.12-40.84-13.68-64.23-13.68-26.57,0-50.06,5.85-70.47,17.54-20.42,11.7-36.38,27.95-47.87,48.77-11.5,20.81-17.25,45.1-17.25,72.85s5.65,52.24,16.95,73.44c11.3,21.21,26.76,37.76,46.39,49.66,19.62,11.89,42.12,17.84,67.5,17.84s48.56-4.85,67.2-14.57c18.63-9.71,32.9-23.98,42.82-42.82,9.91-18.83,14.87-41.93,14.87-69.28l52.93,36.28-182.57-1.78v-70.17h212.9v11.3c0,49.96-8.92,91.69-26.76,125.18-17.84,33.51-42.33,58.68-73.45,75.53-31.13,16.86-66.9,25.28-107.34,25.28Z"/>
            <path d="M1704.4,429.97V142.73h77.91v287.24h-77.91ZM1782.31,271.18l-30.33-20.22c3.57-35.28,13.87-63.13,30.93-83.56,17.04-20.42,41.63-30.63,73.74-30.63,13.87,0,26.36,2.29,37.47,6.84,11.1,4.56,21.2,12,30.33,22.3l-48.77,55.9c-4.37-4.76-9.62-8.32-15.76-10.7-6.15-2.38-13.19-3.57-21.11-3.57-16.65,0-30.24,5.26-40.74,15.76-10.51,10.51-15.76,26.46-15.76,47.87Z"/>
            <path d="M2079.06,435.92c-28.94,0-55.01-6.64-78.2-19.92-23.19-13.28-41.63-31.31-55.31-54.12-13.68-22.79-20.52-48.26-20.52-76.42s6.74-53.42,20.22-75.82c13.47-22.39,31.91-40.24,55.31-53.52,23.39-13.28,49.36-19.92,77.91-19.92s55.6,6.64,78.8,19.92c23.19,13.29,41.53,31.13,55.01,53.52,13.47,22.4,20.22,47.68,20.22,75.82s-6.75,53.63-20.22,76.42c-13.48,22.8-31.82,40.84-55.01,54.12-23.19,13.29-49.27,19.92-78.2,19.92ZM2078.47,363.36c14.66,0,27.65-3.27,38.95-9.81,11.3-6.54,20.02-15.66,26.17-27.36,6.14-11.69,9.22-25.07,9.22-40.14s-3.18-28.34-9.52-39.84c-6.35-11.49-15.07-20.52-26.17-27.06-11.1-6.54-23.99-9.81-38.66-9.81s-26.97,3.27-38.06,9.81c-11.1,6.54-19.83,15.56-26.17,27.06-6.35,11.5-9.51,24.78-9.51,39.84s3.17,28.45,9.51,40.14c6.34,11.7,15.06,20.81,26.17,27.36,11.1,6.54,23.79,9.81,38.06,9.81Z"/>
            <path d="M2352.62,429.97l-107.64-287.24h78.5l70.17,208.74-23.79.59,71.96-209.33h56.5l71.96,209.33-23.79-.59,70.17-208.74h78.5l-107.05,287.24h-56.5l-72.55-198.63h22l-72.55,198.63h-55.9Z"/>
            <path d="M2708.25,211.12v-68.39h212.31v68.39h-212.31ZM2775.45,429.97V23.19h77.91v406.77h-77.91Z"/>
            <path d="M2964.56,429.97V0h77.91v429.97h-77.91ZM3157.84,429.97v-164.73c0-17.04-5.35-30.92-16.06-41.63-10.71-10.7-24.59-16.06-41.63-16.06-11.1,0-21.02,2.38-29.74,7.14-8.73,4.76-15.56,11.5-20.52,20.22-4.96,8.73-7.43,18.84-7.43,30.33l-30.33-15.46c0-22.6,4.76-42.32,14.27-59.17,9.51-16.85,22.69-30.03,39.55-39.55,16.85-9.52,36.17-14.27,57.98-14.27s41.13,4.76,57.98,14.27c16.85,9.51,30.03,22.6,39.55,39.25,9.51,16.65,14.27,35.89,14.27,57.69v181.98h-77.91Z"/>
          </g>
          <g>
            <path d="M1397.32,986.86l-168.08-426.57h89.2l129.85,345.26h-34.59l131.07-345.26h87.98l-169.9,426.57h-65.53Z"/>
            <path d="M1720.12,646.45c-12.95,0-23.67-4.34-32.16-13.05-8.5-8.69-12.74-19.51-12.74-32.46s4.25-23.26,12.74-32.16c8.5-8.89,19.21-13.35,32.16-13.35s24.17,4.46,32.46,13.35c8.29,8.9,12.44,19.63,12.44,32.16s-4.15,23.77-12.44,32.46c-8.3,8.7-19.11,13.05-32.46,13.05ZM1680.07,986.86v-293.08h80.1v293.08h-80.1Z"/>
            <path d="M1931.28,993.54c-16.59,0-32.87-2.23-48.85-6.67-15.99-4.45-30.64-10.62-43.99-18.51-13.35-7.89-24.88-17.49-34.59-28.82l47.33-47.94c10.11,11.33,21.84,19.82,35.19,25.48,13.35,5.67,28.11,8.5,44.3,8.5,12.94,0,22.75-1.82,29.43-5.46,6.67-3.64,10.01-9.1,10.01-16.38,0-8.09-3.55-14.35-10.62-18.81-7.08-4.45-16.29-8.19-27.61-11.23-11.33-3.03-23.16-6.47-35.5-10.32-12.34-3.84-24.18-8.89-35.5-15.17-11.33-6.27-20.54-14.96-27.61-26.09-7.08-11.12-10.62-25.58-10.62-43.39s4.55-34.79,13.65-48.54c9.1-13.75,22.15-24.47,39.14-32.16,16.99-7.68,37.01-11.53,60.07-11.53,24.27,0,46.21,4.25,65.84,12.74,19.62,8.5,35.9,21.24,48.85,38.23l-47.94,47.94c-8.9-10.92-18.92-18.81-30.04-23.67-11.13-4.85-23.16-7.28-36.1-7.28-11.74,0-20.74,1.82-27,5.46-6.28,3.64-9.41,8.7-9.41,15.17,0,7.28,3.54,12.95,10.62,16.99,7.07,4.05,16.28,7.58,27.61,10.62,11.32,3.03,23.15,6.48,35.5,10.32,12.33,3.85,24.06,9.21,35.19,16.08,11.12,6.88,20.22,15.99,27.31,27.31,7.07,11.33,10.62,25.89,10.62,43.69,0,28.73-10.32,51.48-30.95,68.26-20.63,16.79-48.75,25.18-84.34,25.18Z"/>
            <path d="M2140,646.45c-12.95,0-23.67-4.34-32.16-13.05-8.5-8.69-12.74-19.51-12.74-32.46s4.25-23.26,12.74-32.16c8.5-8.89,19.21-13.35,32.16-13.35s24.17,4.46,32.46,13.35c8.29,8.9,12.44,19.63,12.44,32.16s-4.15,23.77-12.44,32.46c-8.3,8.7-19.11,13.05-32.46,13.05ZM2099.96,986.86v-293.08h80.1v293.08h-80.1Z"/>
            <path d="M2388.17,992.93c-29.53,0-56.13-6.77-79.79-20.33-23.67-13.55-42.48-31.95-56.43-55.22-13.96-23.26-20.93-49.25-20.93-77.97s6.87-54.51,20.63-77.37c13.75-22.85,32.56-41.05,56.43-54.61,23.86-13.55,50.36-20.33,79.49-20.33s56.74,6.78,80.4,20.33c23.66,13.56,42.37,31.76,56.13,54.61,13.75,22.86,20.63,48.65,20.63,77.37s-6.88,54.72-20.63,77.97c-13.76,23.27-32.46,41.67-56.13,55.22-23.67,13.56-50.27,20.33-79.79,20.33ZM2387.57,918.9c14.96,0,28.22-3.34,39.75-10.01s20.42-15.98,26.7-27.91c6.27-11.93,9.41-25.58,9.41-40.96s-3.24-28.92-9.71-40.65c-6.48-11.73-15.38-20.93-26.7-27.61-11.33-6.67-24.48-10.01-39.44-10.01s-27.51,3.34-38.83,10.01c-11.33,6.67-20.23,15.88-26.7,27.61-6.48,11.74-9.71,25.29-9.71,40.65s3.23,29.03,9.71,40.96c6.47,11.94,15.37,21.24,26.7,27.91,11.32,6.67,24.27,10.01,38.83,10.01Z"/>
            <path d="M2595.69,986.86v-293.08h79.49v293.08h-79.49ZM2792.89,986.86v-168.08c0-17.39-5.46-31.55-16.38-42.48-10.92-10.92-25.09-16.38-42.48-16.38-11.33,0-21.45,2.43-30.34,7.28-8.9,4.85-15.88,11.74-20.93,20.63-5.06,8.9-7.58,19.22-7.58,30.95l-30.95-15.78c0-23.06,4.95-43.18,14.87-60.38,9.91-17.19,23.67-30.64,41.26-40.35,17.6-9.71,37.52-14.56,59.77-14.56s40.66,5.37,57.65,16.08c16.99,10.72,30.34,24.68,40.05,41.87,9.71,17.2,14.56,35.71,14.56,55.52v185.68h-79.49Z"/>
          </g>
        </g>
        <g>
          <g>
            <path class="cls-4" d="M1443.33,435.92c-29.73,0-57.59-5.45-83.56-16.35-25.97-10.9-48.77-26.26-68.39-46.09-19.62-19.82-34.89-42.72-45.79-68.69-10.91-25.96-16.35-54.02-16.35-84.15s5.55-58.77,16.65-84.74c11.09-25.96,26.56-48.77,46.39-68.39,19.82-19.62,43.01-34.88,69.58-45.79,26.56-10.9,55.31-16.35,86.23-16.35,34.49,0,66.21,6.45,95.15,19.33,28.94,12.89,52.93,31.03,71.96,54.41l-54.71,54.71c-13.08-17.04-29.34-30.12-48.77-39.25-19.43-9.12-40.84-13.68-64.23-13.68-26.57,0-50.06,5.85-70.47,17.54-20.42,11.7-36.38,27.95-47.87,48.77-11.5,20.81-17.25,45.1-17.25,72.85s5.65,52.24,16.95,73.44c11.3,21.21,26.76,37.76,46.39,49.66,19.62,11.89,42.12,17.84,67.5,17.84s48.56-4.85,67.2-14.57c18.63-9.71,32.9-23.98,42.82-42.82,9.91-18.83,14.87-41.93,14.87-69.28l52.93,36.28-182.57-1.78v-70.17h212.9v11.3c0,49.96-8.92,91.69-26.76,125.18-17.84,33.51-42.33,58.68-73.45,75.53-31.13,16.86-66.9,25.28-107.34,25.28Z"/>
            <path class="cls-4" d="M1704.4,429.97V142.73h77.91v287.24h-77.91ZM1782.31,271.18l-30.33-20.22c3.57-35.28,13.87-63.13,30.93-83.56,17.04-20.42,41.63-30.63,73.74-30.63,13.87,0,26.36,2.29,37.47,6.84,11.1,4.56,21.2,12,30.33,22.3l-48.77,55.9c-4.37-4.76-9.62-8.32-15.76-10.7-6.15-2.38-13.19-3.57-21.11-3.57-16.65,0-30.24,5.26-40.74,15.76-10.51,10.51-15.76,26.46-15.76,47.87Z"/>
            <path class="cls-4" d="M2079.06,435.92c-28.94,0-55.01-6.64-78.2-19.92-23.19-13.28-41.63-31.31-55.31-54.12-13.68-22.79-20.52-48.26-20.52-76.42s6.74-53.42,20.22-75.82c13.47-22.39,31.91-40.24,55.31-53.52,23.39-13.28,49.36-19.92,77.91-19.92s55.6,6.64,78.8,19.92c23.19,13.29,41.53,31.13,55.01,53.52,13.47,22.4,20.22,47.68,20.22,75.82s-6.75,53.63-20.22,76.42c-13.48,22.8-31.82,40.84-55.01,54.12-23.19,13.29-49.27,19.92-78.2,19.92ZM2078.47,363.36c14.66,0,27.65-3.27,38.95-9.81,11.3-6.54,20.02-15.66,26.17-27.36,6.14-11.69,9.22-25.07,9.22-40.14s-3.18-28.34-9.52-39.84c-6.35-11.49-15.07-20.52-26.17-27.06-11.1-6.54-23.99-9.81-38.66-9.81s-26.97,3.27-38.06,9.81c-11.1,6.54-19.83,15.56-26.17,27.06-6.35,11.5-9.51,24.78-9.51,39.84s3.17,28.45,9.51,40.14c6.34,11.7,15.06,20.81,26.17,27.36,11.1,6.54,23.79,9.81,38.06,9.81Z"/>
            <path class="cls-4" d="M2352.62,429.97l-107.64-287.24h78.5l70.17,208.74-23.79.59,71.96-209.33h56.5l71.96,209.33-23.79-.59,70.17-208.74h78.5l-107.05,287.24h-56.5l-72.55-198.63h22l-72.55,198.63h-55.9Z"/>
            <path class="cls-4" d="M2708.25,211.12v-68.39h212.31v68.39h-212.31ZM2775.45,429.97V23.19h77.91v406.77h-77.91Z"/>
            <path class="cls-4" d="M2964.56,429.97V0h77.91v429.97h-77.91ZM3157.84,429.97v-164.73c0-17.04-5.35-30.92-16.06-41.63-10.71-10.7-24.59-16.06-41.63-16.06-11.1,0-21.02,2.38-29.74,7.14-8.73,4.76-15.56,11.5-20.52,20.22-4.96,8.73-7.43,18.84-7.43,30.33l-30.33-15.46c0-22.6,4.76-42.32,14.27-59.17,9.51-16.85,22.69-30.03,39.55-39.55,16.85-9.52,36.17-14.27,57.98-14.27s41.13,4.76,57.98,14.27c16.85,9.51,30.03,22.6,39.55,39.25,9.51,16.65,14.27,35.89,14.27,57.69v181.98h-77.91Z"/>
          </g>
          <g>
            <path class="cls-4" d="M1397.32,986.86l-168.08-426.57h89.2l129.85,345.26h-34.59l131.07-345.26h87.98l-169.9,426.57h-65.53Z"/>
            <path class="cls-4" d="M1720.12,646.45c-12.95,0-23.67-4.34-32.16-13.05-8.5-8.69-12.74-19.51-12.74-32.46s4.25-23.26,12.74-32.16c8.5-8.89,19.21-13.35,32.16-13.35s24.17,4.46,32.46,13.35c8.29,8.9,12.44,19.63,12.44,32.16s-4.15,23.77-12.44,32.46c-8.3,8.7-19.11,13.05-32.46,13.05ZM1680.07,986.86v-293.08h80.1v293.08h-80.1Z"/>
            <path class="cls-4" d="M1931.28,993.54c-16.59,0-32.87-2.23-48.85-6.67-15.99-4.45-30.64-10.62-43.99-18.51-13.35-7.89-24.88-17.49-34.59-28.82l47.33-47.94c10.11,11.33,21.84,19.82,35.19,25.48,13.35,5.67,28.11,8.5,44.3,8.5,12.94,0,22.75-1.82,29.43-5.46,6.67-3.64,10.01-9.1,10.01-16.38,0-8.09-3.55-14.35-10.62-18.81-7.08-4.45-16.29-8.19-27.61-11.23-11.33-3.03-23.16-6.47-35.5-10.32-12.34-3.84-24.18-8.89-35.5-15.17-11.33-6.27-20.54-14.96-27.61-26.09-7.08-11.12-10.62-25.58-10.62-43.39s4.55-34.79,13.65-48.54c9.1-13.75,22.15-24.47,39.14-32.16,16.99-7.68,37.01-11.53,60.07-11.53,24.27,0,46.21,4.25,65.84,12.74,19.62,8.5,35.9,21.24,48.85,38.23l-47.94,47.94c-8.9-10.92-18.92-18.81-30.04-23.67-11.13-4.85-23.16-7.28-36.1-7.28-11.74,0-20.74,1.82-27,5.46-6.28,3.64-9.41,8.7-9.41,15.17,0,7.28,3.54,12.95,10.62,16.99,7.07,4.05,16.28,7.58,27.61,10.62,11.32,3.03,23.15,6.48,35.5,10.32,12.33,3.85,24.06,9.21,35.19,16.08,11.12,6.88,20.22,15.99,27.31,27.31,7.07,11.33,10.62,25.89,10.62,43.69,0,28.73-10.32,51.48-30.95,68.26-20.63,16.79-48.75,25.18-84.34,25.18Z"/>
            <path class="cls-4" d="M2140,646.45c-12.95,0-23.67-4.34-32.16-13.05-8.5-8.69-12.74-19.51-12.74-32.46s4.25-23.26,12.74-32.16c8.5-8.89,19.21-13.35,32.16-13.35s24.17,4.46,32.46,13.35c8.29,8.9,12.44,19.63,12.44,32.16s-4.15,23.77-12.44,32.46c-8.3,8.7-19.11,13.05-32.46,13.05ZM2099.96,986.86v-293.08h80.1v293.08h-80.1Z"/>
            <path class="cls-4" d="M2388.17,992.93c-29.53,0-56.13-6.77-79.79-20.33-23.67-13.55-42.48-31.95-56.43-55.22-13.96-23.26-20.93-49.25-20.93-77.97s6.87-54.51,20.63-77.37c13.75-22.85,32.56-41.05,56.43-54.61,23.86-13.55,50.36-20.33,79.49-20.33s56.74,6.78,80.4,20.33c23.66,13.56,42.37,31.76,56.13,54.61,13.75,22.86,20.63,48.65,20.63,77.37s-6.88,54.72-20.63,77.97c-13.76,23.27-32.46,41.67-56.13,55.22-23.67,13.56-50.27,20.33-79.79,20.33ZM2387.57,918.9c14.96,0,28.22-3.34,39.75-10.01s20.42-15.98,26.7-27.91c6.27-11.93,9.41-25.58,9.41-40.96s-3.24-28.92-9.71-40.65c-6.48-11.73-15.38-20.93-26.7-27.61-11.33-6.67-24.48-10.01-39.44-10.01s-27.51,3.34-38.83,10.01c-11.33,6.67-20.23,15.88-26.7,27.61-6.48,11.74-9.71,25.29-9.71,40.65s3.23,29.03,9.71,40.96c6.47,11.94,15.37,21.24,26.7,27.91,11.32,6.67,24.27,10.01,38.83,10.01Z"/>
            <path class="cls-4" d="M2595.69,986.86v-293.08h79.49v293.08h-79.49ZM2792.89,986.86v-168.08c0-17.39-5.46-31.55-16.38-42.48-10.92-10.92-25.09-16.38-42.48-16.38-11.33,0-21.45,2.43-30.34,7.28-8.9,4.85-15.88,11.74-20.93,20.63-5.06,8.9-7.58,19.22-7.58,30.95l-30.95-15.78c0-23.06,4.95-43.18,14.87-60.38,9.91-17.19,23.67-30.64,41.26-40.35,17.6-9.71,37.52-14.56,59.77-14.56s40.66,5.37,57.65,16.08c16.99,10.72,30.34,24.68,40.05,41.87,9.71,17.2,14.56,35.71,14.56,55.52v185.68h-79.49Z"/>
          </g>
        </g>
      </g>
    </g>
  </g>
</svg>